<svg fill="none" height="auto" viewBox="0 0 1074 476" width="100%" xmlns="http://www.w3.org/2000/svg"> <g clip-path="url(#clip0_602_10)"> <path d="M24.2001 257.05C44.9601 229.71 78.1001 213.05 112.76 216.56C129.72 218.3 146.22 224.39 159.25 235.58C172.46 246.91 177.02 262.34 178.82 279.1C180.54 295.02 180.4 317.12 199.69 321.94C209.23 324.33 219.74 322.62 229.39 321.89C239.25 321.16 249.2 320.41 259.07 320.92C274.64 321.69 291.21 324.38 298.67 339.51C306.55 355.5 301.08 377.98 290.19 396.23C252.58 459.22 199.59 471.76 159.65 474.93C123.12 477.84 84.3201 468.86 54.7601 446.69C25.9701 425.09 7.74006 390.92 1.95006 355.72C-3.73994 321.17 2.78006 285.22 24.2001 257.05Z" fill="#EFC2C7"></path> <path d="M826.62 391.53C809.23 363.34 805.49 326.92 820.2 295.48C827.42 280.1 838.35 266.54 852.67 257.85C867.17 249.04 882.43 249.66 897.94 253.29C912.68 256.73 932.3 263.89 943.04 247.29C948.36 239.09 950.35 228.67 952.93 219.37C955.58 209.87 958.24 200.3 961.99 191.18C967.88 176.8 975.81 162.09 991.78 159.89C1008.64 157.57 1026.82 169.85 1039.41 185.87C1082.88 241.2 1076.32 294.96 1065.79 333.48C1056.16 368.72 1035.2 402.31 1005.58 423.04C976.73 443.22 940.23 449.49 906.97 443.75C874.33 438.12 844.52 420.57 826.61 391.51L826.62 391.53Z" fill="#B3CEB7"></path> <path d="M775.81 424.36C773.23 421.17 772.97 417.26 775.53 413.19C777.33 410.32 781.3 409.15 785.36 410.28C789.16 411.34 791.03 413.56 790.85 417.47C790.75 419.69 790.15 421.9 789.59 424.07C788.77 427.2 786.28 428.45 783.39 428.85C780.72 429.22 778.44 428.27 776.91 425.9C776.69 425.57 776.45 425.25 775.82 424.36H775.81Z" fill="#A7BAA8"></path> <path d="M759.73 414.85C762.31 413.01 766.37 413.73 768.16 416.34C770.06 419.12 769.56 422.97 767.04 424.88C764.54 426.78 760.85 425.93 758.8 422.98C756.87 420.21 757.28 416.59 759.73 414.84V414.85Z" fill="#A7BAA8"></path> <path d="M789.59 446.24C790.58 447.64 791.24 449.41 790.58 451.52C789.93 453.59 788.67 454.98 786.51 455.39C784.3 455.82 782.93 454.48 782.13 452.75C781.37 451.13 780.82 449.33 780.59 447.56C780.37 445.86 780.62 444.1 782.67 443.32C784.82 442.51 786.69 442.92 788.36 444.74C788.72 445.13 789.03 445.56 789.59 446.24Z" fill="#A7BAA8"></path> <path d="M814.06 434.3C813.57 432.55 812.92 430.82 812.63 429.03C812.01 425.25 813.13 424.18 816.9 424.68C819.96 425.09 823 429.1 822.62 432.21C822.35 434.47 821.01 436.28 819.3 436.72C817.46 437.2 815.93 436.41 814.07 434.29L814.06 434.3Z" fill="#A7BAA8"></path> <path d="M824.03 459.21C822.22 460.49 819.14 460.21 817.9 458.65C816.74 457.19 817.25 454.67 818.95 453.44C820.61 452.24 824.03 452.54 825.13 453.97C826.23 455.4 825.67 458.04 824.03 459.2V459.21Z" fill="#A7BAA8"></path> <path d="M747.85 397.52C749.73 400.08 749.92 401.64 748.22 402.52C747.36 402.97 745.73 403.06 745.07 402.54C743.96 401.65 744.16 400.13 745.28 399.12C746.02 398.45 746.99 398.04 747.84 397.52H747.85Z" fill="#A7BAA8"></path> <path d="M743.73 385.15C745.25 384.13 747.11 384.1 747.63 385.15C748.26 386.45 747.65 387.49 746.65 388.26C745.38 389.24 744.16 388.95 743.18 387.77C742.3 386.71 742.67 385.83 743.74 385.15H743.73Z" fill="#A7BAA8"></path> <path d="M677.06 191.86C661.09 220.53 631.98 240.75 598.71 242.1C582.42 242.74 566 239.2 552.16 230.36C538.14 221.42 531.74 207.43 527.78 191.81C524.01 176.98 521.17 156.04 502.26 154.08C492.91 153.1 483.19 156.14 474.16 158.13C464.92 160.15 455.62 162.19 446.21 163.05C431.37 164.42 415.33 164.1 406.24 150.79C396.63 136.72 398.78 114.71 406.63 95.98C433.73 31.3 482.19 12.3 519.55 3.92004C553.73 -3.74996 591.65 -0.479963 622.61 16.52C652.76 33.08 674.61 62.96 684.82 95.49C694.85 127.42 693.52 162.31 677.05 191.85L677.06 191.86Z" fill="#FECA62"></path> <path d="M782.06 109.47C781.67 105.74 782.92 103.47 785.47 103.28C787.99 103.08 790.43 105.4 790.75 108.3C791.02 110.73 788.75 113.89 786.42 114.34C784.27 114.75 782.38 112.65 782.05 109.47H782.06Z" fill="#F2B64B"></path> <path d="M751.22 123.41C751.07 121.16 751.44 119.18 754.2 118.97C756.79 118.78 760.01 121.9 759.98 124.4C759.95 126.55 757.79 128.48 755.4 128.5C752.92 128.52 751.44 126.71 751.22 123.41Z" fill="#F2B64B"></path> <path d="M716.3 88.27C713.24 87.64 712 85.54 711.28 83.13C710.69 81.14 711.28 79.06 713.47 78.8C714.69 78.66 716.65 79.8 717.31 80.93C718.78 83.44 718.2 86.03 716.3 88.27Z" fill="#F2B64B"></path> <path d="M709.86 73.26C710.23 78.9 707.43 83.91 703.82 83.65C699.39 83.33 697.56 80.08 697.06 76.21C696.42 71.32 699.07 68.5 703.75 67.71C707.93 67.01 709.7 69.34 709.86 73.26Z" fill="#F2B64B"></path> <path d="M725.79 77.8601C724.24 76.0201 722.83 75.0401 722.47 73.7601C721.87 71.6101 723.48 69.8401 725.37 69.9701C726.74 70.0701 728.8 71.78 729.04 73.06C729.25 74.17 727.35 75.6901 725.79 77.8601Z" fill="#F2B64B"></path> <path d="M73.57 161.84C73.23 159.84 72.39 157.95 71.37 156.19C70.59 154.85 69.61 153.5 68.16 152.92C66.61 152.3 64.85 152.7 63.28 153.27C61.36 153.96 59.43 154.97 58.39 156.71C57.56 158.11 57.4 159.8 57.29 161.43C57.18 163.04 57.1 164.72 57.78 166.18C58.6 167.97 60.37 169.09 62.05 170.11C63.31 170.88 64.65 171.67 66.13 171.75C68.38 171.87 70.93 170.18 72.38 168.54C73.86 166.85 73.93 163.92 73.58 161.83L73.57 161.84Z" fill="#F6A4B3"></path> <path d="M83.3701 174.73C84.7201 174.74 86.0601 174.41 87.3301 173.95C88.3001 173.59 89.3001 173.11 89.8501 172.23C90.4401 171.29 90.3801 170.08 90.1901 168.99C89.9601 167.65 89.5301 166.27 88.5001 165.38C87.6801 164.67 86.5901 164.37 85.5301 164.11C84.4901 163.85 83.4001 163.6 82.3601 163.87C81.0901 164.2 80.1501 165.23 79.2801 166.21C78.6301 166.95 77.9501 167.73 77.7301 168.69C77.3901 170.15 78.2001 172.02 79.1001 173.16C80.0301 174.33 81.9501 174.72 83.3601 174.73H83.3701Z" fill="#F6A4B3"></path> <path d="M42.8702 176.06C41.4802 176.01 40.0902 176.59 39.0902 177.55C38.6402 177.98 38.2502 178.5 38.1202 179.11C38.0202 179.56 38.0702 180.03 38.1202 180.5C38.1702 181.01 38.2302 181.52 38.4002 182.01C38.7002 182.86 39.3302 183.55 39.9502 184.21C40.9402 185.27 41.8002 185.76 43.2502 185.36C44.3102 185.07 45.5402 184.73 46.3902 184C48.0202 182.61 47.5602 179.57 46.4802 177.99C45.6702 176.82 44.2902 176.11 42.8802 176.06H42.8702Z" fill="#F6A4B3"></path> <path d="M39.95 156.99C38.95 156.96 37.96 157.37 37.24 158.05C36.92 158.36 36.64 158.73 36.54 159.17C36.47 159.49 36.5 159.83 36.54 160.16C36.58 160.53 36.62 160.89 36.74 161.24C36.96 161.85 37.41 162.34 37.85 162.81C38.56 163.57 39.17 163.92 40.21 163.64C40.97 163.43 41.85 163.19 42.46 162.67C43.63 161.68 43.3 159.5 42.52 158.37C41.94 157.53 40.95 157.02 39.94 156.99H39.95Z" fill="#F6A4B3"></path> <path d="M78.4001 191.15C77.6001 189.17 75.66 187.64 73.53 187.53C72.88 187.5 72.2201 187.59 71.6201 187.85C70.2401 188.45 69.3601 189.83 68.8001 191.22C68.2901 192.49 67.9801 193.87 68.1801 195.22C68.3801 196.57 69.1601 197.89 70.4001 198.48C71.2901 198.91 72.3101 198.93 73.2901 198.92C75.1501 198.91 77.26 198.53 78.2 196.73C79.06 195.08 79.0901 192.84 78.4001 191.13V191.15Z" fill="#F6A4B3"></path> <path d="M534.26 299.13C525.41 299.13 521.08 292.76 513.37 279.69L491.39 240.28L491.41 293.11C491.41 304.18 486.32 308.57 476.77 308.57C466.43 308.57 461.04 305.61 460.97 290.74V209.34C460.97 190.8 468.15 180.39 489.67 180.39C502.26 180.39 507.22 186.58 510.57 193.02L535.88 247.74" fill="#F37429"></path> <path d="M787.25 180.85H792.96C831.65 180.85 857.92 204.27 857.92 243.99C857.92 274.72 843.72 308.64 802.41 308.64H787.25M812.67 243.35C812.67 213.69 802.17 207.11 787.25 206.87L787.3 283.33C802.8 283.33 812.67 275.36 812.67 243.36V243.35Z" fill="#F37429"></path> <path d="M907.9 258.54V278.48L948.78 278.52C962.45 278.53 968.6 281.89 968.6 292.54C968.6 305.35 960.37 308.65 947.02 308.65H885.93C871.85 308.65 864.51 302.58 864.51 281.95V203.1C864.51 186.51 873.76 180.72 885.93 180.72H947.02C960.37 180.72 968.6 183.97 968.6 196.26C968.6 207.4 962.45 210.91 948.78 210.92L907.87 210.96L907.89 232.77" fill="#F37429"></path> <path d="M396.02 308.64C381.94 308.64 375.01 302.63 374.82 282L374.54 251.67L345.5 218.1C340.62 212.46 337.68 207.59 337.68 202.54C337.68 196.62 340.07 190.43 345.59 186.33C349.87 183.15 354.18 180.77 358.92 180.77C363.36 180.77 368.52 182.46 373.38 188.06L396.45 214.59L415.55 192.2C422.66 183.87 430.05 180.87 436.18 180.87C440.58 180.87 445 181.73 448.62 185.32C453.6 190.26 456.43 194.99 456.43 200.17C456.43 205.87 452.29 211.49 445.39 219.79L418.22 252.51V280.56C418.22 301.37 410.5 308.63 396 308.63L396.02 308.64Z" fill="#F37429"></path> <path d="M663.68 280.2V290.09C663.68 302.44 658.05 308.55 641.18 308.55C624.31 308.55 620.26 298.82 620.26 250.89C620.26 197.95 655 180.66 679.86 180.66C704.72 180.66 738.41 197.96 738.41 250.89C738.41 298.82 734.43 308.55 717.49 308.55C700.55 308.55 694.93 302.44 694.93 290.09V280.2H663.69H663.68ZM663.68 232.47V254.43H694.92V232.01C694.92 215.91 689.24 211.19 679.44 211.19C669.13 211.19 663.68 215.93 663.68 232.47Z" fill="#F37429"></path> <path d="M212.42 245.51C212.42 204.28 240.41 179.67 278.39 179.67C316.37 179.67 344.46 204.28 344.46 245.51C344.46 286.74 315.05 309.76 278.39 309.76C241.73 309.76 212.42 286.46 212.42 245.51ZM297.96 245.51C297.96 227.46 291.6 207.11 278.38 207.11C265.89 207.11 258.89 227.46 258.89 245.51C258.89 263.56 265.58 282.46 278.38 282.46C291.9 282.46 297.96 263.39 297.96 245.51Z" fill="#F37429"></path> <path d="M156.33 283.27C162.39 283.27 165.26 280.62 165.26 271.46V203.19C165.26 188.2 171.12 180.79 186.66 180.79C198.96 180.79 208.54 185.19 208.55 201.51V270.67C208.55 298.93 190.6 309.96 159.16 309.96C117.6 309.96 105.59 284.95 105.59 268.09C105.59 251.23 109.5 246.53 126.47 246.53C139.96 246.53 147.13 251.63 147.13 259.72C147.13 263.45 146.09 268.11 146.09 271.47C146.09 279.16 151.51 283.28 156.32 283.28L156.33 283.27Z" fill="#F37429"></path> <path d="M535.74 247.75L562.45 193.89C567.34 184.63 575.43 180.59 587.42 180.59C604.13 180.59 614.99 188.99 614.99 208.92V290.1C614.91 304.96 603.04 308.57 591.37 308.57C581.5 308.57 572.31 304.06 572.07 289.24V240.27L548.62 288.08C544.47 296.2 540.34 299.11 534.13 299.11L535.74 247.74V247.75Z" fill="#F37429"></path> <path d="M787.69 308.64H765.75C750.95 308.64 744.4 302.63 744.29 282V203.15C744.29 186.5 752.97 180.85 765.75 180.85H787.69M787.69 206.87L787.74 283.33Z" fill="#F37429"></path> <path d="M907.63 231.72H939.9C953.57 231.72 957.99 235.85 957.99 245.74C957.99 254.33 951.67 257.49 938.14 257.49H907.65" fill="#F37429"></path> <path d="M339.19 358.27C339.19 361.91 337.51 365.92 332.62 365.92H328.23C326.48 365.92 325.7 365.21 325.69 362.77V353.44C325.69 351.47 326.72 350.8 328.23 350.8H331.5C336.08 350.8 339.19 353.57 339.19 358.28V358.27ZM333.84 358.2C333.84 354.69 332.6 353.91 330.83 353.88V362.93C332.67 362.93 333.84 361.99 333.84 358.2Z" fill="#F37429" stroke="#F37429" stroke-miterlimit="10" stroke-width="0.25"></path> <path d="M353.74 358.6C353.74 359.62 352.99 359.99 351.39 359.99H347.78V362.35H352.62C354.24 362.35 354.97 362.75 354.97 364.01C354.97 365.53 354 365.92 352.42 365.92H345.19C343.52 365.92 342.66 365.2 342.66 362.76V353.43C342.66 351.47 343.75 350.78 345.19 350.78H352.42C354 350.78 354.97 351.16 354.97 352.62C354.97 353.94 354.24 354.35 352.62 354.36H347.78V356.95H351.6C353.22 356.95 353.74 357.44 353.74 358.61V358.6Z" fill="#F37429" stroke="#F37429" stroke-miterlimit="10" stroke-width="0.25"></path> <path d="M370.54 354.02C370.54 354.68 370.02 355.02 369.59 355.02C368.56 355.02 366.75 353.38 364.78 353.38C364.01 353.38 363.47 353.63 363.47 354.43C363.47 355.58 365.54 356.3 367.81 357.62C370.19 358.95 370.92 360.04 370.92 361.5C370.92 363.63 369.91 366.08 364.71 366.08C360.47 366.08 357.47 363.84 357.47 362.38C357.47 361.78 357.86 361.21 358.75 361.21C359.9 361.21 361.91 362.38 363.86 362.38C364.42 362.38 364.86 362.2 364.86 361.68C364.86 360.77 363.58 360.48 360.25 358.59C358.55 357.63 357.71 355.95 357.71 354.83C357.71 352.44 359.91 350.64 364.12 350.64C367.85 350.64 370.53 352.49 370.53 354.02H370.54Z" fill="#F37429" stroke="#F37429" stroke-miterlimit="10" stroke-width="0.25"></path> <path d="M386.89 354.02C386.89 354.68 386.37 355.02 385.94 355.02C384.91 355.02 383.1 353.38 381.13 353.38C380.36 353.38 379.82 353.63 379.82 354.43C379.82 355.58 381.89 356.3 384.16 357.62C386.54 358.95 387.27 360.04 387.27 361.5C387.27 363.63 386.26 366.08 381.06 366.08C376.82 366.08 373.82 363.84 373.82 362.38C373.82 361.78 374.21 361.21 375.1 361.21C376.25 361.21 378.26 362.38 380.21 362.38C380.77 362.38 381.21 362.2 381.21 361.68C381.21 360.77 379.93 360.48 376.6 358.59C374.9 357.63 374.06 355.95 374.06 354.83C374.06 352.44 376.26 350.64 380.47 350.64C384.2 350.64 386.88 352.49 386.88 354.02H386.89Z" fill="#F37429" stroke="#F37429" stroke-miterlimit="10" stroke-width="0.25"></path> <path d="M401.86 358.6C401.86 359.62 401.11 359.99 399.51 359.99H395.9V362.35H400.74C402.36 362.35 403.09 362.75 403.09 364.01C403.09 365.53 402.12 365.92 400.54 365.92H393.31C391.64 365.92 390.78 365.2 390.78 362.76V353.43C390.78 351.47 391.87 350.78 393.31 350.78H400.54C402.12 350.78 403.09 351.16 403.09 352.62C403.09 353.94 402.36 354.35 400.74 354.36H395.9V356.95H399.72C401.34 356.95 401.86 357.44 401.86 358.61V358.6Z" fill="#F37429" stroke="#F37429" stroke-miterlimit="10" stroke-width="0.25"></path> <path d="M408.97 365.93C407.3 365.93 406.44 365.22 406.43 362.78V353.45C406.43 351.66 407.53 350.82 408.97 350.82H413.64C417.31 350.82 419.76 352.7 419.76 355.36C419.76 357.32 418.98 358.43 417.1 358.96C418.42 359.03 419.99 360.36 419.99 362.38C419.99 365.35 419.22 365.94 417.46 365.94C415.7 365.94 414.94 365.21 414.94 363.74C414.94 360.92 414.16 360.46 412.8 360.46H411.57V362.62C411.57 364.93 410.67 365.94 408.97 365.94V365.93ZM411.57 353.32V357.15C413.75 357.15 414.99 356.72 414.99 355.18C414.99 353.73 413.96 353.33 411.57 353.33V353.32Z" fill="#F37429" stroke="#F37429" stroke-miterlimit="10" stroke-width="0.25"></path> <path d="M429.42 365.93C427.75 365.93 426.92 365.22 426.91 362.78L426.87 354.61H424.97C423.23 354.61 422.16 354.2 422.16 352.61C422.16 351.23 422.94 350.79 424.76 350.79H434.31C435.93 350.79 436.66 351.26 436.66 352.76C436.66 354.26 435.69 354.6 434.11 354.61H432.03V362.61C432.03 365.18 431.13 365.93 429.43 365.93H429.42Z" fill="#F37429" stroke="#F37429" stroke-miterlimit="10" stroke-width="0.25"></path> <path d="M451.37 354.02C451.37 354.68 450.85 355.02 450.42 355.02C449.39 355.02 447.58 353.38 445.61 353.38C444.84 353.38 444.3 353.63 444.3 354.43C444.3 355.58 446.37 356.3 448.64 357.62C451.02 358.95 451.75 360.04 451.75 361.5C451.75 363.63 450.74 366.08 445.54 366.08C441.3 366.08 438.3 363.84 438.3 362.38C438.3 361.78 438.69 361.21 439.58 361.21C440.73 361.21 442.74 362.38 444.69 362.38C445.25 362.38 445.69 362.2 445.69 361.68C445.69 360.77 444.41 360.48 441.08 358.59C439.38 357.63 438.54 355.95 438.54 354.83C438.54 352.44 440.74 350.64 444.95 350.64C448.68 350.64 451.36 352.49 451.36 354.02H451.37Z" fill="#F37429" stroke="#F37429" stroke-miterlimit="10" stroke-width="0.25"></path> <path d="M464.51 365.92C463.02 365.92 461.99 365.2 461.97 362.77V353.44C461.97 351.52 463.07 350.79 464.51 350.79H471.83C473.41 350.79 474.38 351.17 474.38 352.63C474.38 353.95 473.65 354.36 472.03 354.37H467.1V356.96H471.03C472.65 356.96 473.17 357.45 473.17 358.62C473.17 359.64 472.42 360.01 470.82 360.01H467.11V362.87C467.11 364.88 466.2 365.94 464.5 365.94L464.51 365.92Z" fill="#F37429" stroke="#F37429" stroke-miterlimit="10" stroke-width="0.25"></path> <path d="M476.58 358.45C476.58 353.57 479.89 350.66 484.39 350.66C488.89 350.66 492.21 353.57 492.21 358.45C492.21 363.33 488.73 366.06 484.39 366.06C480.05 366.06 476.58 363.3 476.58 358.45ZM486.7 358.45C486.7 356.31 485.95 353.9 484.38 353.9C482.9 353.9 482.07 356.31 482.07 358.45C482.07 360.59 482.86 362.83 484.38 362.83C485.98 362.83 486.7 360.57 486.7 358.45Z" fill="#F37429" stroke="#F37429" stroke-miterlimit="10" stroke-width="0.25"></path> <path d="M498.13 365.93C496.46 365.93 495.6 365.22 495.59 362.78V353.45C495.59 351.66 496.69 350.82 498.13 350.82H502.8C506.47 350.82 508.92 352.7 508.92 355.36C508.92 357.32 508.14 358.43 506.26 358.96C507.58 359.03 509.15 360.36 509.15 362.38C509.15 365.35 508.38 365.94 506.62 365.94C504.86 365.94 504.1 365.21 504.1 363.74C504.1 360.92 503.32 360.46 501.96 360.46H500.73V362.62C500.73 364.93 499.83 365.94 498.13 365.94V365.93ZM500.73 353.32V357.15C502.91 357.15 504.15 356.72 504.15 355.18C504.15 353.73 503.12 353.33 500.73 353.33V353.32Z" fill="#F37429" stroke="#F37429" stroke-miterlimit="10" stroke-width="0.25"></path> <path d="M525.23 362.92C525.95 362.92 526.29 362.61 526.29 361.52V353.44C526.29 351.66 526.98 350.79 528.82 350.79C530.28 350.79 531.41 351.31 531.41 353.24V361.43C531.41 364.78 529.29 366.08 525.56 366.08C520.64 366.08 519.22 363.12 519.22 361.12C519.22 359.12 519.68 358.57 521.69 358.57C523.29 358.57 524.14 359.17 524.14 360.13C524.14 360.57 524.02 361.12 524.02 361.52C524.02 362.43 524.66 362.92 525.23 362.92Z" fill="#F37429" stroke="#F37429" stroke-miterlimit="10" stroke-width="0.25"></path> <path d="M534.54 358.45C534.54 353.57 537.85 350.66 542.35 350.66C546.85 350.66 550.17 353.57 550.17 358.45C550.17 363.33 546.69 366.06 542.35 366.06C538.01 366.06 534.54 363.3 534.54 358.45ZM544.67 358.45C544.67 356.31 543.92 353.9 542.35 353.9C540.87 353.9 540.04 356.31 540.04 358.45C540.04 360.59 540.83 362.83 542.35 362.83C543.95 362.83 544.67 360.57 544.67 358.45Z" fill="#F37429" stroke="#F37429" stroke-miterlimit="10" stroke-width="0.25"></path> <path d="M558.95 365.93C557.28 365.93 556.46 365.22 556.44 362.78L556.41 359.19L552.97 355.22C552.39 354.55 552.04 353.98 552.04 353.38C552.04 352.68 552.32 351.95 552.98 351.46C553.49 351.08 554 350.8 554.56 350.8C555.09 350.8 555.7 351 556.27 351.66L559 354.8L561.26 352.15C562.1 351.16 562.98 350.81 563.7 350.81C564.22 350.81 564.74 350.91 565.17 351.34C565.76 351.92 566.09 352.49 566.09 353.1C566.09 353.77 565.6 354.44 564.78 355.42L561.56 359.29V362.61C561.56 365.07 560.65 365.93 558.93 365.93H558.95Z" fill="#F37429" stroke="#F37429" stroke-miterlimit="10" stroke-width="0.25"></path> <path d="M571.74 365.92C570.25 365.92 569.22 365.2 569.2 362.77V353.44C569.2 351.52 570.3 350.79 571.74 350.79H579.06C580.64 350.79 581.61 351.17 581.61 352.63C581.61 353.95 580.88 354.36 579.26 354.37H574.33V356.96H578.26C579.88 356.96 580.4 357.45 580.4 358.62C580.4 359.64 579.65 360.01 578.05 360.01H574.34V362.87C574.34 364.88 573.43 365.94 571.73 365.94L571.74 365.92Z" fill="#F37429" stroke="#F37429" stroke-miterlimit="10" stroke-width="0.25"></path> <path d="M598.12 360.02C598.12 364.29 596.25 366.05 591.26 366.05C586.27 366.05 584.4 364 584.4 360.02V353.42C584.4 351.86 585.46 350.79 586.87 350.79C588.39 350.79 589.54 351.09 589.54 353.24V360.45C589.59 361.89 590.2 362.32 591.26 362.32C592.81 362.32 592.97 361.48 592.97 360.45V353.22C592.97 351.1 594.14 350.79 595.53 350.79C597.2 350.79 598.11 351.5 598.11 353.44V360.02H598.12Z" fill="#F37429" stroke="#F37429" stroke-miterlimit="10" stroke-width="0.25"></path> <path d="M601.79 362.78V353.45C601.79 351.87 602.78 350.8 604.32 350.8C605.86 350.8 606.91 351.11 606.92 353.25V362.11H610.73C612.35 362.11 613.08 362.38 613.08 364.02C613.08 365.66 612.11 365.92 610.53 365.92H604.71C602.71 365.86 601.81 365.1 601.81 362.77L601.79 362.78Z" fill="#F37429" stroke="#F37429" stroke-miterlimit="10" stroke-width="0.25"></path> <path d="M633.62 363.49C633.13 364.45 632.64 364.8 631.9 364.8C630.85 364.8 630.34 364.05 629.43 362.5L626.83 357.83V364.08C626.83 365.39 626.23 365.91 625.1 365.91C623.88 365.91 623.24 365.56 623.23 363.8V354.16C623.23 351.96 624.08 350.73 626.63 350.73C628.12 350.73 628.71 351.46 629.1 352.23L632.1 358.71L635.26 352.33C635.84 351.23 636.8 350.76 638.21 350.76C640.19 350.76 641.47 351.75 641.47 354.11V363.72C641.47 365.48 640.06 365.91 638.67 365.91C637.5 365.91 636.41 365.38 636.39 363.62V357.82L633.61 363.48L633.62 363.49Z" fill="#F37429" stroke="#F37429" stroke-miterlimit="10" stroke-width="0.25"></path> <path d="M644.94 358.45C644.94 353.57 648.25 350.66 652.75 350.66C657.25 350.66 660.57 353.57 660.57 358.45C660.57 363.33 657.09 366.06 652.75 366.06C648.41 366.06 644.94 363.3 644.94 358.45ZM655.06 358.45C655.06 356.31 654.31 353.9 652.74 353.9C651.26 353.9 650.43 356.31 650.43 358.45C650.43 360.59 651.22 362.83 652.74 362.83C654.34 362.83 655.06 360.57 655.06 358.45Z" fill="#F37429" stroke="#F37429" stroke-miterlimit="10" stroke-width="0.25"></path> <path d="M674.48 363.49C673.99 364.45 673.5 364.8 672.76 364.8C671.71 364.8 671.2 364.05 670.29 362.5L667.69 357.83V364.08C667.69 365.39 667.09 365.91 665.96 365.91C664.74 365.91 664.1 365.56 664.09 363.8V354.16C664.09 351.96 664.94 350.73 667.49 350.73C668.98 350.73 669.57 351.46 669.96 352.23L672.96 358.71L676.12 352.33C676.7 351.23 677.66 350.76 679.07 350.76C681.05 350.76 682.33 351.75 682.33 354.11V363.72C682.33 365.48 680.92 365.91 679.53 365.91C678.36 365.91 677.27 365.38 677.25 363.62V357.82L674.47 363.48L674.48 363.49Z" fill="#F37429" stroke="#F37429" stroke-miterlimit="10" stroke-width="0.25"></path> <path d="M697.28 358.6C697.28 359.62 696.53 359.99 694.93 359.99H691.32V362.35H696.16C697.78 362.35 698.51 362.75 698.51 364.01C698.51 365.53 697.54 365.92 695.96 365.92H688.73C687.06 365.92 686.2 365.2 686.2 362.76V353.43C686.2 351.47 687.29 350.78 688.73 350.78H695.96C697.54 350.78 698.51 351.16 698.51 352.62C698.51 353.94 697.78 354.35 696.16 354.36H691.32V356.95H695.14C696.76 356.95 697.28 357.44 697.28 358.61V358.6Z" fill="#F37429" stroke="#F37429" stroke-miterlimit="10" stroke-width="0.25"></path> <path d="M713.97 365.93C712.56 365.93 711.31 364.55 709.71 363.07L705.63 359.25V364.04C705.63 365.56 705.03 365.92 703.91 365.92C702.65 365.92 702 365.41 702 363.99V353.31C702 351.59 702.94 350.78 704.49 350.78C705.63 350.78 706.13 351.1 707 351.94L712.65 357.51V352.69C712.65 351.4 713.36 350.79 714.42 350.79C715.68 350.79 716.22 351.32 716.22 352.67V363.81C716.22 365.08 715.46 365.92 713.95 365.92L713.97 365.93Z" fill="#F37429" stroke="#F37429" stroke-miterlimit="10" stroke-width="0.25"></path> <path d="M726.17 365.93C724.5 365.93 723.67 365.22 723.66 362.78L723.62 354.61H721.72C719.98 354.61 718.91 354.2 718.91 352.61C718.91 351.23 719.69 350.79 721.51 350.79H731.06C732.68 350.79 733.41 351.26 733.41 352.76C733.41 354.26 732.44 354.6 730.86 354.61H728.78V362.61C728.78 365.18 727.88 365.93 726.18 365.93H726.17Z" fill="#F37429" stroke="#F37429" stroke-miterlimit="10" stroke-width="0.25"></path> <path d="M748.12 354.02C748.12 354.68 747.6 355.02 747.17 355.02C746.14 355.02 744.33 353.38 742.36 353.38C741.59 353.38 741.05 353.63 741.05 354.43C741.05 355.58 743.12 356.3 745.39 357.62C747.77 358.95 748.5 360.04 748.5 361.5C748.5 363.63 747.49 366.08 742.29 366.08C738.05 366.08 735.05 363.84 735.05 362.38C735.05 361.78 735.44 361.21 736.33 361.21C737.48 361.21 739.49 362.38 741.44 362.38C742 362.38 742.44 362.2 742.44 361.68C742.44 360.77 741.16 360.48 737.83 358.59C736.13 357.63 735.29 355.95 735.29 354.83C735.29 352.44 737.49 350.64 741.7 350.64C745.43 350.64 748.11 352.49 748.11 354.02H748.12Z" fill="#F37429" stroke="#F37429" stroke-miterlimit="10" stroke-width="0.25"></path> </g> <defs> <clipPath id="clip0_602_10"> <rect fill="white" height="475.46" width="1073.58"></rect> </clipPath> </defs> </svg>